G75*
%MOIN*%
%OFA0B0*%
%FSLAX25Y25*%
%IPPOS*%
%LPD*%
%AMOC8*
5,1,8,0,0,1.08239X$1,22.5*
%
%ADD10R,0.05512X0.07874*%
%ADD11R,0.05039X0.05512*%
%ADD12R,0.07677X0.05512*%
%ADD13R,0.02756X0.05512*%
%ADD14OC8,0.06300*%
%ADD15C,0.02500*%
%ADD16C,0.01000*%
%ADD17C,0.01200*%
%ADD18C,0.01600*%
%ADD19C,0.02400*%
D10*
X0008898Y0022780D03*
X0071102Y0022780D03*
D11*
X0008661Y0060575D03*
D12*
X0067657Y0060575D03*
D13*
X0048661Y0064000D03*
X0044331Y0064000D03*
X0040000Y0064000D03*
X0035669Y0064000D03*
X0031339Y0064000D03*
X0027008Y0064000D03*
X0022677Y0064000D03*
X0018346Y0064000D03*
X0014016Y0064000D03*
D14*
X0016500Y0046500D03*
X0016500Y0036500D03*
X0016500Y0026500D03*
X0016500Y0016500D03*
X0046500Y0016500D03*
X0046500Y0026500D03*
X0046500Y0036500D03*
X0046500Y0046500D03*
D15*
X0036500Y0056500D03*
X0024000Y0057750D03*
X0019000Y0057750D03*
X0025250Y0071500D03*
X0054000Y0061500D03*
X0059000Y0066500D03*
X0071500Y0066500D03*
X0076500Y0066500D03*
X0076500Y0044000D03*
X0076500Y0036500D03*
X0056500Y0024000D03*
X0054000Y0031500D03*
X0039000Y0014000D03*
X0034000Y0014000D03*
X0029000Y0014000D03*
X0024000Y0014000D03*
X0066500Y0007750D03*
X0071500Y0007750D03*
X0076500Y0007750D03*
D16*
X0003000Y0003000D02*
X0003000Y0075000D01*
X0095000Y0075000D01*
X0095000Y0003000D01*
X0003000Y0003000D01*
X0003000Y0003497D02*
X0095000Y0003497D01*
X0095000Y0004496D02*
X0003000Y0004496D01*
X0003000Y0005494D02*
X0095000Y0005494D01*
X0095000Y0006493D02*
X0003000Y0006493D01*
X0003000Y0007491D02*
X0095000Y0007491D01*
X0095000Y0008490D02*
X0003000Y0008490D01*
X0003000Y0009488D02*
X0095000Y0009488D01*
X0095000Y0010487D02*
X0003000Y0010487D01*
X0003000Y0011485D02*
X0022885Y0011485D01*
X0022442Y0011669D02*
X0023453Y0011250D01*
X0024547Y0011250D01*
X0025558Y0011669D01*
X0026331Y0012442D01*
X0026750Y0013453D01*
X0026750Y0014547D01*
X0026331Y0015558D01*
X0026300Y0015589D01*
X0026300Y0016797D01*
X0027550Y0018047D01*
X0027550Y0028703D01*
X0026203Y0030050D01*
X0021150Y0035103D01*
X0021150Y0038426D01*
X0020376Y0039200D01*
X0020547Y0039200D01*
X0029200Y0030547D01*
X0030547Y0029200D01*
X0042624Y0029200D01*
X0041850Y0028426D01*
X0041850Y0024574D01*
X0044574Y0021850D01*
X0048244Y0021850D01*
X0048244Y0021150D01*
X0044574Y0021150D01*
X0041850Y0018426D01*
X0041850Y0014574D01*
X0044574Y0011850D01*
X0048426Y0011850D01*
X0050776Y0014200D01*
X0054953Y0014200D01*
X0057453Y0016700D01*
X0058800Y0018047D01*
X0058800Y0022411D01*
X0058831Y0022442D01*
X0059250Y0023453D01*
X0059250Y0024547D01*
X0058831Y0025558D01*
X0058058Y0026331D01*
X0057047Y0026750D01*
X0055953Y0026750D01*
X0054942Y0026331D01*
X0054169Y0025558D01*
X0053858Y0024807D01*
X0052993Y0025165D01*
X0051417Y0025165D01*
X0051150Y0025055D01*
X0051150Y0028426D01*
X0050376Y0029200D01*
X0052411Y0029200D01*
X0052442Y0029169D01*
X0053453Y0028750D01*
X0054547Y0028750D01*
X0055558Y0029169D01*
X0056331Y0029942D01*
X0056750Y0030953D01*
X0056750Y0032047D01*
X0056331Y0033058D01*
X0055558Y0033831D01*
X0054547Y0034250D01*
X0053453Y0034250D01*
X0052442Y0033831D01*
X0052411Y0033800D01*
X0050376Y0033800D01*
X0051150Y0034574D01*
X0051150Y0038426D01*
X0050376Y0039200D01*
X0052453Y0039200D01*
X0053800Y0040547D01*
X0054953Y0041700D01*
X0074911Y0041700D01*
X0074942Y0041669D01*
X0075953Y0041250D01*
X0077047Y0041250D01*
X0078058Y0041669D01*
X0078831Y0042442D01*
X0079200Y0043332D01*
X0079200Y0039953D01*
X0078068Y0038821D01*
X0078058Y0038831D01*
X0077047Y0039250D01*
X0075953Y0039250D01*
X0074942Y0038831D01*
X0074169Y0038058D01*
X0073750Y0037047D01*
X0073750Y0035953D01*
X0074169Y0034942D01*
X0074942Y0034169D01*
X0075953Y0033750D01*
X0077047Y0033750D01*
X0078058Y0034169D01*
X0078089Y0034200D01*
X0079953Y0034200D01*
X0081300Y0035547D01*
X0083800Y0038047D01*
X0083800Y0049953D01*
X0082453Y0051300D01*
X0081300Y0052453D01*
X0079953Y0053800D01*
X0051203Y0053800D01*
X0046631Y0058372D01*
X0046631Y0059776D01*
X0046662Y0059744D01*
X0050661Y0059744D01*
X0051431Y0060515D01*
X0051669Y0059942D01*
X0052442Y0059169D01*
X0053453Y0058750D01*
X0054547Y0058750D01*
X0055558Y0059169D01*
X0056331Y0059942D01*
X0056750Y0060953D01*
X0056750Y0062047D01*
X0056331Y0063058D01*
X0056300Y0063089D01*
X0056300Y0068703D01*
X0052453Y0072550D01*
X0040547Y0072550D01*
X0039200Y0071203D01*
X0037700Y0069703D01*
X0037700Y0068224D01*
X0037669Y0068256D01*
X0033670Y0068256D01*
X0033504Y0068090D01*
X0033338Y0068256D01*
X0029339Y0068256D01*
X0029137Y0068054D01*
X0028965Y0068154D01*
X0028583Y0068256D01*
X0027197Y0068256D01*
X0027197Y0064189D01*
X0026819Y0064189D01*
X0026819Y0068256D01*
X0025432Y0068256D01*
X0025195Y0068192D01*
X0025753Y0068750D01*
X0025797Y0068750D01*
X0026808Y0069169D01*
X0027581Y0069942D01*
X0028000Y0070953D01*
X0028000Y0072047D01*
X0027581Y0073058D01*
X0026808Y0073831D01*
X0025797Y0074250D01*
X0024703Y0074250D01*
X0023692Y0073831D01*
X0022919Y0073058D01*
X0022500Y0072047D01*
X0022500Y0072003D01*
X0020377Y0069880D01*
X0020377Y0068224D01*
X0020346Y0068256D01*
X0016347Y0068256D01*
X0016181Y0068090D01*
X0016015Y0068256D01*
X0012016Y0068256D01*
X0011138Y0067377D01*
X0011138Y0064831D01*
X0009161Y0064831D01*
X0009161Y0061075D01*
X0008161Y0061075D01*
X0008161Y0060075D01*
X0004642Y0060075D01*
X0004642Y0057621D01*
X0004744Y0057240D01*
X0004941Y0056898D01*
X0005221Y0056619D01*
X0005563Y0056421D01*
X0005944Y0056319D01*
X0008161Y0056319D01*
X0008161Y0060075D01*
X0009161Y0060075D01*
X0009161Y0056319D01*
X0011379Y0056319D01*
X0011760Y0056421D01*
X0012102Y0056619D01*
X0012381Y0056898D01*
X0012579Y0057240D01*
X0012681Y0057621D01*
X0012681Y0059744D01*
X0016015Y0059744D01*
X0016181Y0059910D01*
X0016347Y0059744D01*
X0020346Y0059744D01*
X0020512Y0059910D01*
X0020678Y0059744D01*
X0024676Y0059744D01*
X0024878Y0059946D01*
X0025051Y0059846D01*
X0025432Y0059744D01*
X0026819Y0059744D01*
X0026819Y0063811D01*
X0027197Y0063811D01*
X0027197Y0059744D01*
X0028583Y0059744D01*
X0028965Y0059846D01*
X0029137Y0059946D01*
X0029200Y0059883D01*
X0029200Y0058703D01*
X0026797Y0056300D01*
X0014297Y0056300D01*
X0012950Y0054953D01*
X0009297Y0051300D01*
X0007950Y0049953D01*
X0007950Y0043047D01*
X0010450Y0040547D01*
X0011797Y0039200D01*
X0012624Y0039200D01*
X0011850Y0038426D01*
X0011850Y0034574D01*
X0014574Y0031850D01*
X0015500Y0031850D01*
X0015500Y0031150D01*
X0014574Y0031150D01*
X0011850Y0028426D01*
X0011850Y0028217D01*
X0009398Y0028217D01*
X0009398Y0023280D01*
X0008398Y0023280D01*
X0008398Y0028217D01*
X0005944Y0028217D01*
X0005563Y0028114D01*
X0005221Y0027917D01*
X0004941Y0027638D01*
X0004744Y0027296D01*
X0004642Y0026914D01*
X0004642Y0023279D01*
X0008398Y0023279D01*
X0008398Y0022280D01*
X0004642Y0022280D01*
X0004642Y0018645D01*
X0004744Y0018264D01*
X0004941Y0017921D01*
X0005221Y0017642D01*
X0005563Y0017445D01*
X0005944Y0017343D01*
X0008398Y0017343D01*
X0008398Y0022279D01*
X0009398Y0022279D01*
X0009398Y0017343D01*
X0011850Y0017343D01*
X0011850Y0016800D01*
X0016200Y0016800D01*
X0016200Y0021150D01*
X0014574Y0021150D01*
X0013154Y0019730D01*
X0013154Y0022280D01*
X0009398Y0022280D01*
X0009398Y0023279D01*
X0013144Y0023279D01*
X0014574Y0021850D01*
X0016748Y0021850D01*
X0016748Y0020417D01*
X0016800Y0020291D01*
X0016800Y0016800D01*
X0021150Y0016800D01*
X0021150Y0017244D01*
X0021496Y0017244D01*
X0021700Y0017328D01*
X0021700Y0015589D01*
X0021669Y0015558D01*
X0021250Y0014547D01*
X0021250Y0013453D01*
X0021669Y0012442D01*
X0022442Y0011669D01*
X0021652Y0012484D02*
X0019060Y0012484D01*
X0018426Y0011850D02*
X0021150Y0014574D01*
X0021150Y0016200D01*
X0016800Y0016200D01*
X0016800Y0016800D01*
X0016200Y0016800D01*
X0016200Y0016200D01*
X0016800Y0016200D01*
X0016800Y0011850D01*
X0018426Y0011850D01*
X0016800Y0012484D02*
X0016200Y0012484D01*
X0016200Y0011850D02*
X0016200Y0016200D01*
X0011850Y0016200D01*
X0011850Y0014574D01*
X0014574Y0011850D01*
X0016200Y0011850D01*
X0016200Y0013482D02*
X0016800Y0013482D01*
X0016800Y0014481D02*
X0016200Y0014481D01*
X0016200Y0015479D02*
X0016800Y0015479D01*
X0016800Y0016478D02*
X0021700Y0016478D01*
X0021636Y0015479D02*
X0021150Y0015479D01*
X0021057Y0014481D02*
X0021250Y0014481D01*
X0021250Y0013482D02*
X0020058Y0013482D01*
X0016200Y0016478D02*
X0003000Y0016478D01*
X0003000Y0017476D02*
X0005508Y0017476D01*
X0004687Y0018475D02*
X0003000Y0018475D01*
X0003000Y0019473D02*
X0004642Y0019473D01*
X0004642Y0020472D02*
X0003000Y0020472D01*
X0003000Y0021470D02*
X0004642Y0021470D01*
X0003000Y0022469D02*
X0008398Y0022469D01*
X0008398Y0021470D02*
X0009398Y0021470D01*
X0009398Y0020472D02*
X0008398Y0020472D01*
X0008398Y0019473D02*
X0009398Y0019473D01*
X0009398Y0018475D02*
X0008398Y0018475D01*
X0008398Y0017476D02*
X0009398Y0017476D01*
X0011850Y0015479D02*
X0003000Y0015479D01*
X0003000Y0014481D02*
X0011943Y0014481D01*
X0012942Y0013482D02*
X0003000Y0013482D01*
X0003000Y0012484D02*
X0013940Y0012484D01*
X0016200Y0017476D02*
X0016800Y0017476D01*
X0016800Y0018475D02*
X0016200Y0018475D01*
X0016200Y0019473D02*
X0016800Y0019473D01*
X0016748Y0020472D02*
X0016200Y0020472D01*
X0016748Y0021470D02*
X0013154Y0021470D01*
X0013154Y0020472D02*
X0013896Y0020472D01*
X0013955Y0022469D02*
X0009398Y0022469D01*
X0009398Y0023467D02*
X0008398Y0023467D01*
X0008398Y0024466D02*
X0009398Y0024466D01*
X0009398Y0025464D02*
X0008398Y0025464D01*
X0008398Y0026463D02*
X0009398Y0026463D01*
X0009398Y0027461D02*
X0008398Y0027461D01*
X0004840Y0027461D02*
X0003000Y0027461D01*
X0003000Y0028460D02*
X0011884Y0028460D01*
X0012882Y0029458D02*
X0003000Y0029458D01*
X0003000Y0030457D02*
X0013881Y0030457D01*
X0015500Y0031455D02*
X0003000Y0031455D01*
X0003000Y0032454D02*
X0013970Y0032454D01*
X0012972Y0033452D02*
X0003000Y0033452D01*
X0003000Y0034451D02*
X0011973Y0034451D01*
X0011850Y0035449D02*
X0003000Y0035449D01*
X0003000Y0036448D02*
X0011850Y0036448D01*
X0011850Y0037446D02*
X0003000Y0037446D01*
X0003000Y0038445D02*
X0011869Y0038445D01*
X0011554Y0039443D02*
X0003000Y0039443D01*
X0003000Y0040442D02*
X0010555Y0040442D01*
X0009557Y0041440D02*
X0003000Y0041440D01*
X0003000Y0042439D02*
X0008558Y0042439D01*
X0007950Y0043437D02*
X0003000Y0043437D01*
X0003000Y0044436D02*
X0007950Y0044436D01*
X0007950Y0045434D02*
X0003000Y0045434D01*
X0003000Y0046433D02*
X0007950Y0046433D01*
X0007950Y0047432D02*
X0003000Y0047432D01*
X0003000Y0048430D02*
X0007950Y0048430D01*
X0007950Y0049429D02*
X0003000Y0049429D01*
X0003000Y0050427D02*
X0008424Y0050427D01*
X0009423Y0051426D02*
X0003000Y0051426D01*
X0003000Y0052424D02*
X0010421Y0052424D01*
X0011420Y0053423D02*
X0003000Y0053423D01*
X0003000Y0054421D02*
X0012418Y0054421D01*
X0013417Y0055420D02*
X0003000Y0055420D01*
X0003000Y0056418D02*
X0005574Y0056418D01*
X0004697Y0057417D02*
X0003000Y0057417D01*
X0003000Y0058415D02*
X0004642Y0058415D01*
X0004642Y0059414D02*
X0003000Y0059414D01*
X0003000Y0060412D02*
X0008161Y0060412D01*
X0008161Y0061075D02*
X0004642Y0061075D01*
X0004642Y0063528D01*
X0004744Y0063910D01*
X0004941Y0064252D01*
X0005221Y0064531D01*
X0005563Y0064728D01*
X0005944Y0064831D01*
X0008161Y0064831D01*
X0008161Y0061075D01*
X0008161Y0061411D02*
X0009161Y0061411D01*
X0009161Y0062409D02*
X0008161Y0062409D01*
X0008161Y0063408D02*
X0009161Y0063408D01*
X0009161Y0064406D02*
X0008161Y0064406D01*
X0005096Y0064406D02*
X0003000Y0064406D01*
X0003000Y0063408D02*
X0004642Y0063408D01*
X0004642Y0062409D02*
X0003000Y0062409D01*
X0003000Y0061411D02*
X0004642Y0061411D01*
X0008161Y0059414D02*
X0009161Y0059414D01*
X0009161Y0058415D02*
X0008161Y0058415D01*
X0008161Y0057417D02*
X0009161Y0057417D01*
X0009161Y0056418D02*
X0008161Y0056418D01*
X0011749Y0056418D02*
X0026915Y0056418D01*
X0027914Y0057417D02*
X0012626Y0057417D01*
X0012681Y0058415D02*
X0028912Y0058415D01*
X0029200Y0059414D02*
X0012681Y0059414D01*
X0011138Y0065405D02*
X0003000Y0065405D01*
X0003000Y0066403D02*
X0011138Y0066403D01*
X0011162Y0067402D02*
X0003000Y0067402D01*
X0003000Y0068400D02*
X0020377Y0068400D01*
X0020377Y0069399D02*
X0003000Y0069399D01*
X0003000Y0070397D02*
X0020895Y0070397D01*
X0021893Y0071396D02*
X0003000Y0071396D01*
X0003000Y0072394D02*
X0022644Y0072394D01*
X0023254Y0073393D02*
X0003000Y0073393D01*
X0003000Y0074391D02*
X0095000Y0074391D01*
X0095000Y0073393D02*
X0027246Y0073393D01*
X0027856Y0072394D02*
X0040392Y0072394D01*
X0039393Y0071396D02*
X0028000Y0071396D01*
X0027770Y0070397D02*
X0038395Y0070397D01*
X0037700Y0069399D02*
X0027038Y0069399D01*
X0025403Y0068400D02*
X0037700Y0068400D01*
X0027197Y0067402D02*
X0026819Y0067402D01*
X0026819Y0066403D02*
X0027197Y0066403D01*
X0027197Y0065405D02*
X0026819Y0065405D01*
X0026819Y0064406D02*
X0027197Y0064406D01*
X0027197Y0063408D02*
X0026819Y0063408D01*
X0026819Y0062409D02*
X0027197Y0062409D01*
X0027197Y0061411D02*
X0026819Y0061411D01*
X0026819Y0060412D02*
X0027197Y0060412D01*
X0046631Y0059414D02*
X0052197Y0059414D01*
X0051474Y0060412D02*
X0051329Y0060412D01*
X0055803Y0059414D02*
X0062319Y0059414D01*
X0062319Y0060075D02*
X0062319Y0057621D01*
X0062421Y0057240D01*
X0062619Y0056898D01*
X0062898Y0056619D01*
X0063240Y0056421D01*
X0063621Y0056319D01*
X0067157Y0056319D01*
X0067157Y0060075D01*
X0062319Y0060075D01*
X0062319Y0061075D02*
X0067157Y0061075D01*
X0067157Y0060075D01*
X0068157Y0060075D01*
X0068157Y0056319D01*
X0071694Y0056319D01*
X0072075Y0056421D01*
X0072417Y0056619D01*
X0072696Y0056898D01*
X0072894Y0057240D01*
X0072996Y0057621D01*
X0072996Y0060075D01*
X0068158Y0060075D01*
X0068158Y0061075D01*
X0072996Y0061075D01*
X0072996Y0063528D01*
X0072894Y0063910D01*
X0072696Y0064252D01*
X0072417Y0064531D01*
X0072075Y0064728D01*
X0071694Y0064831D01*
X0068157Y0064831D01*
X0068157Y0061075D01*
X0067157Y0061075D01*
X0067157Y0064831D01*
X0063621Y0064831D01*
X0063240Y0064728D01*
X0062898Y0064531D01*
X0062619Y0064252D01*
X0062421Y0063910D01*
X0062319Y0063528D01*
X0062319Y0061075D01*
X0062319Y0061411D02*
X0056750Y0061411D01*
X0056526Y0060412D02*
X0067157Y0060412D01*
X0067157Y0059414D02*
X0068157Y0059414D01*
X0068158Y0060412D02*
X0095000Y0060412D01*
X0095000Y0059414D02*
X0072996Y0059414D01*
X0072996Y0058415D02*
X0095000Y0058415D01*
X0095000Y0057417D02*
X0072941Y0057417D01*
X0072064Y0056418D02*
X0095000Y0056418D01*
X0095000Y0055420D02*
X0049583Y0055420D01*
X0048585Y0056418D02*
X0063251Y0056418D01*
X0062374Y0057417D02*
X0047586Y0057417D01*
X0046631Y0058415D02*
X0062319Y0058415D01*
X0067157Y0058415D02*
X0068157Y0058415D01*
X0068157Y0057417D02*
X0067157Y0057417D01*
X0067157Y0056418D02*
X0068157Y0056418D01*
X0068157Y0061411D02*
X0067157Y0061411D01*
X0067157Y0062409D02*
X0068157Y0062409D01*
X0068157Y0063408D02*
X0067157Y0063408D01*
X0067157Y0064406D02*
X0068157Y0064406D01*
X0072542Y0064406D02*
X0095000Y0064406D01*
X0095000Y0063408D02*
X0072996Y0063408D01*
X0072996Y0062409D02*
X0095000Y0062409D01*
X0095000Y0061411D02*
X0072996Y0061411D01*
X0062773Y0064406D02*
X0056300Y0064406D01*
X0056300Y0063408D02*
X0062319Y0063408D01*
X0062319Y0062409D02*
X0056600Y0062409D01*
X0056300Y0065405D02*
X0095000Y0065405D01*
X0095000Y0066403D02*
X0056300Y0066403D01*
X0056300Y0067402D02*
X0095000Y0067402D01*
X0095000Y0068400D02*
X0056300Y0068400D01*
X0055604Y0069399D02*
X0095000Y0069399D01*
X0095000Y0070397D02*
X0054605Y0070397D01*
X0053607Y0071396D02*
X0095000Y0071396D01*
X0095000Y0072394D02*
X0052608Y0072394D01*
X0050582Y0054421D02*
X0095000Y0054421D01*
X0095000Y0053423D02*
X0080330Y0053423D01*
X0081300Y0052453D02*
X0081300Y0052453D01*
X0081329Y0052424D02*
X0095000Y0052424D01*
X0095000Y0051426D02*
X0082327Y0051426D01*
X0083326Y0050427D02*
X0095000Y0050427D01*
X0095000Y0049429D02*
X0083800Y0049429D01*
X0083800Y0048430D02*
X0095000Y0048430D01*
X0095000Y0047432D02*
X0083800Y0047432D01*
X0083800Y0046433D02*
X0095000Y0046433D01*
X0095000Y0045434D02*
X0083800Y0045434D01*
X0083800Y0044436D02*
X0095000Y0044436D01*
X0095000Y0043437D02*
X0083800Y0043437D01*
X0083800Y0042439D02*
X0095000Y0042439D01*
X0095000Y0041440D02*
X0083800Y0041440D01*
X0083800Y0040442D02*
X0095000Y0040442D01*
X0095000Y0039443D02*
X0083800Y0039443D01*
X0083800Y0038445D02*
X0095000Y0038445D01*
X0095000Y0037446D02*
X0083199Y0037446D01*
X0082201Y0036448D02*
X0095000Y0036448D01*
X0095000Y0035449D02*
X0081202Y0035449D01*
X0080204Y0034451D02*
X0095000Y0034451D01*
X0095000Y0033452D02*
X0055937Y0033452D01*
X0056581Y0032454D02*
X0095000Y0032454D01*
X0095000Y0031455D02*
X0056750Y0031455D01*
X0056544Y0030457D02*
X0095000Y0030457D01*
X0095000Y0029458D02*
X0055847Y0029458D01*
X0055260Y0026463D02*
X0051150Y0026463D01*
X0051150Y0025464D02*
X0054130Y0025464D01*
X0051500Y0025250D02*
X0047750Y0021500D01*
X0048244Y0021470D02*
X0027550Y0021470D01*
X0027550Y0020472D02*
X0043896Y0020472D01*
X0042897Y0019473D02*
X0027550Y0019473D01*
X0027550Y0018475D02*
X0041899Y0018475D01*
X0041850Y0017476D02*
X0026979Y0017476D01*
X0026300Y0016478D02*
X0041850Y0016478D01*
X0041850Y0015479D02*
X0026364Y0015479D01*
X0026750Y0014481D02*
X0041943Y0014481D01*
X0042942Y0013482D02*
X0026750Y0013482D01*
X0026348Y0012484D02*
X0043940Y0012484D01*
X0049060Y0012484D02*
X0095000Y0012484D01*
X0095000Y0013482D02*
X0050058Y0013482D01*
X0055233Y0014481D02*
X0095000Y0014481D01*
X0095000Y0015479D02*
X0056232Y0015479D01*
X0057230Y0016478D02*
X0095000Y0016478D01*
X0095000Y0017476D02*
X0074492Y0017476D01*
X0074437Y0017445D02*
X0074779Y0017642D01*
X0075059Y0017921D01*
X0075256Y0018264D01*
X0075358Y0018645D01*
X0075358Y0022280D01*
X0071602Y0022280D01*
X0071602Y0023279D01*
X0075358Y0023279D01*
X0075358Y0026914D01*
X0075256Y0027296D01*
X0075059Y0027638D01*
X0074779Y0027917D01*
X0074437Y0028114D01*
X0074056Y0028217D01*
X0071602Y0028217D01*
X0071602Y0023280D01*
X0070602Y0023280D01*
X0070602Y0028217D01*
X0068149Y0028217D01*
X0067767Y0028114D01*
X0067425Y0027917D01*
X0067146Y0027638D01*
X0066949Y0027296D01*
X0066846Y0026914D01*
X0066846Y0023279D01*
X0070602Y0023279D01*
X0070602Y0022280D01*
X0066846Y0022280D01*
X0066846Y0018645D01*
X0066949Y0018264D01*
X0067146Y0017921D01*
X0067425Y0017642D01*
X0067767Y0017445D01*
X0068149Y0017343D01*
X0070602Y0017343D01*
X0070602Y0022279D01*
X0071602Y0022279D01*
X0071602Y0017343D01*
X0074056Y0017343D01*
X0074437Y0017445D01*
X0075313Y0018475D02*
X0095000Y0018475D01*
X0095000Y0019473D02*
X0075358Y0019473D01*
X0075358Y0020472D02*
X0095000Y0020472D01*
X0095000Y0021470D02*
X0075358Y0021470D01*
X0075358Y0023467D02*
X0095000Y0023467D01*
X0095000Y0024466D02*
X0075358Y0024466D01*
X0075358Y0025464D02*
X0095000Y0025464D01*
X0095000Y0026463D02*
X0075358Y0026463D01*
X0075160Y0027461D02*
X0095000Y0027461D01*
X0095000Y0028460D02*
X0051116Y0028460D01*
X0051150Y0027461D02*
X0067044Y0027461D01*
X0066846Y0026463D02*
X0057740Y0026463D01*
X0058870Y0025464D02*
X0066846Y0025464D01*
X0066846Y0024466D02*
X0059250Y0024466D01*
X0059250Y0023467D02*
X0066846Y0023467D01*
X0066846Y0021470D02*
X0058800Y0021470D01*
X0058800Y0020472D02*
X0066846Y0020472D01*
X0066846Y0019473D02*
X0058800Y0019473D01*
X0058800Y0018475D02*
X0066892Y0018475D01*
X0067713Y0017476D02*
X0058229Y0017476D01*
X0058842Y0022469D02*
X0070602Y0022469D01*
X0070602Y0021470D02*
X0071602Y0021470D01*
X0071602Y0020472D02*
X0070602Y0020472D01*
X0070602Y0019473D02*
X0071602Y0019473D01*
X0071602Y0018475D02*
X0070602Y0018475D01*
X0070602Y0017476D02*
X0071602Y0017476D01*
X0071602Y0022469D02*
X0095000Y0022469D01*
X0095000Y0011485D02*
X0025115Y0011485D01*
X0027550Y0022469D02*
X0043955Y0022469D01*
X0042957Y0023467D02*
X0027550Y0023467D01*
X0027550Y0024466D02*
X0041958Y0024466D01*
X0041850Y0025464D02*
X0027550Y0025464D01*
X0027550Y0026463D02*
X0041850Y0026463D01*
X0041850Y0027461D02*
X0027550Y0027461D01*
X0027550Y0028460D02*
X0041884Y0028460D01*
X0051027Y0034451D02*
X0074660Y0034451D01*
X0073959Y0035449D02*
X0051150Y0035449D01*
X0051150Y0036448D02*
X0073750Y0036448D01*
X0073915Y0037446D02*
X0051150Y0037446D01*
X0051131Y0038445D02*
X0074556Y0038445D01*
X0075493Y0041440D02*
X0054693Y0041440D01*
X0053695Y0040442D02*
X0079200Y0040442D01*
X0078691Y0039443D02*
X0052696Y0039443D01*
X0070602Y0027461D02*
X0071602Y0027461D01*
X0071602Y0026463D02*
X0070602Y0026463D01*
X0070602Y0025464D02*
X0071602Y0025464D01*
X0071602Y0024466D02*
X0070602Y0024466D01*
X0070602Y0023467D02*
X0071602Y0023467D01*
X0077507Y0041440D02*
X0079200Y0041440D01*
X0079200Y0042439D02*
X0078828Y0042439D01*
X0030289Y0029458D02*
X0026794Y0029458D01*
X0025796Y0030457D02*
X0029290Y0030457D01*
X0028292Y0031455D02*
X0024797Y0031455D01*
X0023799Y0032454D02*
X0027293Y0032454D01*
X0026295Y0033452D02*
X0022800Y0033452D01*
X0021802Y0034451D02*
X0025296Y0034451D01*
X0024298Y0035449D02*
X0021150Y0035449D01*
X0021150Y0036448D02*
X0023299Y0036448D01*
X0022301Y0037446D02*
X0021150Y0037446D01*
X0021131Y0038445D02*
X0021302Y0038445D01*
X0004642Y0026463D02*
X0003000Y0026463D01*
X0003000Y0025464D02*
X0004642Y0025464D01*
X0004642Y0024466D02*
X0003000Y0024466D01*
X0003000Y0023467D02*
X0004642Y0023467D01*
D17*
X0010250Y0016500D02*
X0015250Y0021500D01*
X0016500Y0021500D01*
X0016500Y0016500D01*
D18*
X0024000Y0017750D02*
X0024000Y0014000D01*
X0024000Y0017750D02*
X0025250Y0019000D01*
X0025250Y0027750D01*
X0016500Y0036500D01*
X0012750Y0041500D02*
X0021500Y0041500D01*
X0031500Y0031500D01*
X0054000Y0031500D01*
X0056500Y0024000D02*
X0056500Y0019000D01*
X0054000Y0016500D01*
X0046500Y0016500D01*
X0076500Y0036500D02*
X0079000Y0036500D01*
X0081500Y0039000D01*
X0081500Y0049000D01*
X0079000Y0051500D01*
X0050250Y0051500D01*
X0044331Y0057419D01*
X0044331Y0064000D01*
X0040000Y0064000D02*
X0040000Y0068750D01*
X0041500Y0070250D01*
X0051500Y0070250D01*
X0054000Y0067750D01*
X0054000Y0061500D01*
X0036500Y0046500D02*
X0041500Y0041500D01*
X0051500Y0041500D01*
X0054000Y0044000D01*
X0076500Y0044000D01*
X0036500Y0046500D02*
X0016500Y0046500D01*
X0012750Y0041500D02*
X0010250Y0044000D01*
X0010250Y0049000D01*
X0015250Y0054000D01*
X0027750Y0054000D01*
X0031500Y0057750D01*
X0031500Y0064000D01*
X0031339Y0064000D01*
X0022677Y0064000D02*
X0022677Y0068927D01*
X0025250Y0071500D01*
D19*
X0035669Y0064000D02*
X0035669Y0057750D01*
X0036500Y0056500D01*
M02*
