G75*
%MOIN*%
%OFA0B0*%
%FSLAX25Y25*%
%IPPOS*%
%LPD*%
%AMOC8*
5,1,8,0,0,1.08239X$1,22.5*
%
%ADD10C,0.00000*%
%ADD11C,0.00500*%
%ADD12C,0.00600*%
%ADD13C,0.00200*%
%ADD14R,0.04500X0.02000*%
%ADD15C,0.00400*%
%ADD16C,0.01500*%
%ADD17R,0.01969X0.03740*%
%ADD18R,0.01969X0.02559*%
%ADD19C,0.01600*%
%ADD20R,0.02362X0.01181*%
D10*
X0001500Y0001500D02*
X0001500Y0076500D01*
X0096500Y0076500D01*
X0096500Y0001500D01*
X0001500Y0001500D01*
X0018248Y0021205D02*
X0018250Y0021304D01*
X0018256Y0021403D01*
X0018266Y0021502D01*
X0018280Y0021600D01*
X0018298Y0021697D01*
X0018320Y0021794D01*
X0018345Y0021890D01*
X0018375Y0021984D01*
X0018408Y0022078D01*
X0018445Y0022170D01*
X0018486Y0022260D01*
X0018530Y0022349D01*
X0018578Y0022435D01*
X0018629Y0022520D01*
X0018684Y0022603D01*
X0018742Y0022683D01*
X0018803Y0022761D01*
X0018867Y0022837D01*
X0018934Y0022910D01*
X0019004Y0022980D01*
X0019077Y0023047D01*
X0019153Y0023111D01*
X0019231Y0023172D01*
X0019311Y0023230D01*
X0019394Y0023285D01*
X0019478Y0023336D01*
X0019565Y0023384D01*
X0019654Y0023428D01*
X0019744Y0023469D01*
X0019836Y0023506D01*
X0019930Y0023539D01*
X0020024Y0023569D01*
X0020120Y0023594D01*
X0020217Y0023616D01*
X0020314Y0023634D01*
X0020412Y0023648D01*
X0020511Y0023658D01*
X0020610Y0023664D01*
X0020709Y0023666D01*
X0020808Y0023664D01*
X0020907Y0023658D01*
X0021006Y0023648D01*
X0021104Y0023634D01*
X0021201Y0023616D01*
X0021298Y0023594D01*
X0021394Y0023569D01*
X0021488Y0023539D01*
X0021582Y0023506D01*
X0021674Y0023469D01*
X0021764Y0023428D01*
X0021853Y0023384D01*
X0021939Y0023336D01*
X0022024Y0023285D01*
X0022107Y0023230D01*
X0022187Y0023172D01*
X0022265Y0023111D01*
X0022341Y0023047D01*
X0022414Y0022980D01*
X0022484Y0022910D01*
X0022551Y0022837D01*
X0022615Y0022761D01*
X0022676Y0022683D01*
X0022734Y0022603D01*
X0022789Y0022520D01*
X0022840Y0022436D01*
X0022888Y0022349D01*
X0022932Y0022260D01*
X0022973Y0022170D01*
X0023010Y0022078D01*
X0023043Y0021984D01*
X0023073Y0021890D01*
X0023098Y0021794D01*
X0023120Y0021697D01*
X0023138Y0021600D01*
X0023152Y0021502D01*
X0023162Y0021403D01*
X0023168Y0021304D01*
X0023170Y0021205D01*
X0023168Y0021106D01*
X0023162Y0021007D01*
X0023152Y0020908D01*
X0023138Y0020810D01*
X0023120Y0020713D01*
X0023098Y0020616D01*
X0023073Y0020520D01*
X0023043Y0020426D01*
X0023010Y0020332D01*
X0022973Y0020240D01*
X0022932Y0020150D01*
X0022888Y0020061D01*
X0022840Y0019975D01*
X0022789Y0019890D01*
X0022734Y0019807D01*
X0022676Y0019727D01*
X0022615Y0019649D01*
X0022551Y0019573D01*
X0022484Y0019500D01*
X0022414Y0019430D01*
X0022341Y0019363D01*
X0022265Y0019299D01*
X0022187Y0019238D01*
X0022107Y0019180D01*
X0022024Y0019125D01*
X0021940Y0019074D01*
X0021853Y0019026D01*
X0021764Y0018982D01*
X0021674Y0018941D01*
X0021582Y0018904D01*
X0021488Y0018871D01*
X0021394Y0018841D01*
X0021298Y0018816D01*
X0021201Y0018794D01*
X0021104Y0018776D01*
X0021006Y0018762D01*
X0020907Y0018752D01*
X0020808Y0018746D01*
X0020709Y0018744D01*
X0020610Y0018746D01*
X0020511Y0018752D01*
X0020412Y0018762D01*
X0020314Y0018776D01*
X0020217Y0018794D01*
X0020120Y0018816D01*
X0020024Y0018841D01*
X0019930Y0018871D01*
X0019836Y0018904D01*
X0019744Y0018941D01*
X0019654Y0018982D01*
X0019565Y0019026D01*
X0019479Y0019074D01*
X0019394Y0019125D01*
X0019311Y0019180D01*
X0019231Y0019238D01*
X0019153Y0019299D01*
X0019077Y0019363D01*
X0019004Y0019430D01*
X0018934Y0019500D01*
X0018867Y0019573D01*
X0018803Y0019649D01*
X0018742Y0019727D01*
X0018684Y0019807D01*
X0018629Y0019890D01*
X0018578Y0019974D01*
X0018530Y0020061D01*
X0018486Y0020150D01*
X0018445Y0020240D01*
X0018408Y0020332D01*
X0018375Y0020426D01*
X0018345Y0020520D01*
X0018320Y0020616D01*
X0018298Y0020713D01*
X0018280Y0020810D01*
X0018266Y0020908D01*
X0018256Y0021007D01*
X0018250Y0021106D01*
X0018248Y0021205D01*
X0049744Y0021205D02*
X0049746Y0021304D01*
X0049752Y0021403D01*
X0049762Y0021502D01*
X0049776Y0021600D01*
X0049794Y0021697D01*
X0049816Y0021794D01*
X0049841Y0021890D01*
X0049871Y0021984D01*
X0049904Y0022078D01*
X0049941Y0022170D01*
X0049982Y0022260D01*
X0050026Y0022349D01*
X0050074Y0022435D01*
X0050125Y0022520D01*
X0050180Y0022603D01*
X0050238Y0022683D01*
X0050299Y0022761D01*
X0050363Y0022837D01*
X0050430Y0022910D01*
X0050500Y0022980D01*
X0050573Y0023047D01*
X0050649Y0023111D01*
X0050727Y0023172D01*
X0050807Y0023230D01*
X0050890Y0023285D01*
X0050974Y0023336D01*
X0051061Y0023384D01*
X0051150Y0023428D01*
X0051240Y0023469D01*
X0051332Y0023506D01*
X0051426Y0023539D01*
X0051520Y0023569D01*
X0051616Y0023594D01*
X0051713Y0023616D01*
X0051810Y0023634D01*
X0051908Y0023648D01*
X0052007Y0023658D01*
X0052106Y0023664D01*
X0052205Y0023666D01*
X0052304Y0023664D01*
X0052403Y0023658D01*
X0052502Y0023648D01*
X0052600Y0023634D01*
X0052697Y0023616D01*
X0052794Y0023594D01*
X0052890Y0023569D01*
X0052984Y0023539D01*
X0053078Y0023506D01*
X0053170Y0023469D01*
X0053260Y0023428D01*
X0053349Y0023384D01*
X0053435Y0023336D01*
X0053520Y0023285D01*
X0053603Y0023230D01*
X0053683Y0023172D01*
X0053761Y0023111D01*
X0053837Y0023047D01*
X0053910Y0022980D01*
X0053980Y0022910D01*
X0054047Y0022837D01*
X0054111Y0022761D01*
X0054172Y0022683D01*
X0054230Y0022603D01*
X0054285Y0022520D01*
X0054336Y0022436D01*
X0054384Y0022349D01*
X0054428Y0022260D01*
X0054469Y0022170D01*
X0054506Y0022078D01*
X0054539Y0021984D01*
X0054569Y0021890D01*
X0054594Y0021794D01*
X0054616Y0021697D01*
X0054634Y0021600D01*
X0054648Y0021502D01*
X0054658Y0021403D01*
X0054664Y0021304D01*
X0054666Y0021205D01*
X0054664Y0021106D01*
X0054658Y0021007D01*
X0054648Y0020908D01*
X0054634Y0020810D01*
X0054616Y0020713D01*
X0054594Y0020616D01*
X0054569Y0020520D01*
X0054539Y0020426D01*
X0054506Y0020332D01*
X0054469Y0020240D01*
X0054428Y0020150D01*
X0054384Y0020061D01*
X0054336Y0019975D01*
X0054285Y0019890D01*
X0054230Y0019807D01*
X0054172Y0019727D01*
X0054111Y0019649D01*
X0054047Y0019573D01*
X0053980Y0019500D01*
X0053910Y0019430D01*
X0053837Y0019363D01*
X0053761Y0019299D01*
X0053683Y0019238D01*
X0053603Y0019180D01*
X0053520Y0019125D01*
X0053436Y0019074D01*
X0053349Y0019026D01*
X0053260Y0018982D01*
X0053170Y0018941D01*
X0053078Y0018904D01*
X0052984Y0018871D01*
X0052890Y0018841D01*
X0052794Y0018816D01*
X0052697Y0018794D01*
X0052600Y0018776D01*
X0052502Y0018762D01*
X0052403Y0018752D01*
X0052304Y0018746D01*
X0052205Y0018744D01*
X0052106Y0018746D01*
X0052007Y0018752D01*
X0051908Y0018762D01*
X0051810Y0018776D01*
X0051713Y0018794D01*
X0051616Y0018816D01*
X0051520Y0018841D01*
X0051426Y0018871D01*
X0051332Y0018904D01*
X0051240Y0018941D01*
X0051150Y0018982D01*
X0051061Y0019026D01*
X0050975Y0019074D01*
X0050890Y0019125D01*
X0050807Y0019180D01*
X0050727Y0019238D01*
X0050649Y0019299D01*
X0050573Y0019363D01*
X0050500Y0019430D01*
X0050430Y0019500D01*
X0050363Y0019573D01*
X0050299Y0019649D01*
X0050238Y0019727D01*
X0050180Y0019807D01*
X0050125Y0019890D01*
X0050074Y0019974D01*
X0050026Y0020061D01*
X0049982Y0020150D01*
X0049941Y0020240D01*
X0049904Y0020332D01*
X0049871Y0020426D01*
X0049841Y0020520D01*
X0049816Y0020616D01*
X0049794Y0020713D01*
X0049776Y0020810D01*
X0049762Y0020908D01*
X0049752Y0021007D01*
X0049746Y0021106D01*
X0049744Y0021205D01*
D11*
X0042500Y0021502D02*
X0042500Y0019700D01*
X0042050Y0019250D01*
X0041149Y0019250D01*
X0040698Y0019700D01*
X0039553Y0019250D02*
X0037752Y0019250D01*
X0038653Y0019250D02*
X0038653Y0021952D01*
X0039553Y0021052D01*
X0040698Y0021502D02*
X0041149Y0021952D01*
X0042050Y0021952D01*
X0042500Y0021502D01*
X0051500Y0011500D02*
X0051500Y0051500D01*
X0035250Y0051500D01*
X0031500Y0047750D02*
X0031380Y0047752D01*
X0031260Y0047758D01*
X0031140Y0047767D01*
X0031020Y0047781D01*
X0030902Y0047798D01*
X0030783Y0047819D01*
X0030666Y0047844D01*
X0030549Y0047873D01*
X0030433Y0047905D01*
X0030318Y0047941D01*
X0030205Y0047981D01*
X0030093Y0048024D01*
X0029982Y0048071D01*
X0029873Y0048121D01*
X0029765Y0048175D01*
X0029660Y0048233D01*
X0029556Y0048293D01*
X0029454Y0048357D01*
X0029355Y0048424D01*
X0029257Y0048495D01*
X0029162Y0048568D01*
X0029069Y0048645D01*
X0028979Y0048724D01*
X0028891Y0048806D01*
X0028806Y0048891D01*
X0028724Y0048979D01*
X0028645Y0049069D01*
X0028568Y0049162D01*
X0028495Y0049257D01*
X0028424Y0049355D01*
X0028357Y0049454D01*
X0028293Y0049556D01*
X0028233Y0049660D01*
X0028175Y0049765D01*
X0028121Y0049873D01*
X0028071Y0049982D01*
X0028024Y0050093D01*
X0027981Y0050205D01*
X0027941Y0050318D01*
X0027905Y0050433D01*
X0027873Y0050549D01*
X0027844Y0050666D01*
X0027819Y0050783D01*
X0027798Y0050902D01*
X0027781Y0051020D01*
X0027767Y0051140D01*
X0027758Y0051260D01*
X0027752Y0051380D01*
X0027750Y0051500D01*
X0011500Y0051500D01*
X0011500Y0011500D01*
X0051500Y0011500D01*
X0031500Y0047750D02*
X0031620Y0047752D01*
X0031740Y0047758D01*
X0031860Y0047767D01*
X0031980Y0047781D01*
X0032098Y0047798D01*
X0032217Y0047819D01*
X0032334Y0047844D01*
X0032451Y0047873D01*
X0032567Y0047905D01*
X0032682Y0047941D01*
X0032795Y0047981D01*
X0032907Y0048024D01*
X0033018Y0048071D01*
X0033127Y0048121D01*
X0033235Y0048175D01*
X0033340Y0048233D01*
X0033444Y0048293D01*
X0033546Y0048357D01*
X0033645Y0048424D01*
X0033743Y0048495D01*
X0033838Y0048568D01*
X0033931Y0048645D01*
X0034021Y0048724D01*
X0034109Y0048806D01*
X0034194Y0048891D01*
X0034276Y0048979D01*
X0034355Y0049069D01*
X0034432Y0049162D01*
X0034505Y0049257D01*
X0034576Y0049355D01*
X0034643Y0049454D01*
X0034707Y0049556D01*
X0034767Y0049660D01*
X0034825Y0049765D01*
X0034879Y0049873D01*
X0034929Y0049982D01*
X0034976Y0050093D01*
X0035019Y0050205D01*
X0035059Y0050318D01*
X0035095Y0050433D01*
X0035127Y0050549D01*
X0035156Y0050666D01*
X0035181Y0050783D01*
X0035202Y0050902D01*
X0035219Y0051020D01*
X0035233Y0051140D01*
X0035242Y0051260D01*
X0035248Y0051380D01*
X0035250Y0051500D01*
D12*
X0037769Y0048969D02*
X0038202Y0049402D01*
X0039070Y0049402D01*
X0039503Y0048969D01*
X0040715Y0048969D02*
X0041149Y0049402D01*
X0042016Y0049402D01*
X0042450Y0048969D01*
X0042450Y0047234D01*
X0042016Y0046800D01*
X0041149Y0046800D01*
X0040715Y0047234D01*
X0039503Y0046800D02*
X0037769Y0048535D01*
X0037769Y0048969D01*
X0037769Y0046800D02*
X0039503Y0046800D01*
X0037098Y0037091D02*
X0036728Y0037091D01*
X0037098Y0037091D02*
X0025902Y0037091D01*
X0026272Y0037091D01*
X0025902Y0037091D02*
X0025902Y0030909D01*
X0026272Y0030909D01*
X0025902Y0030909D02*
X0037098Y0030909D01*
X0036728Y0030909D01*
X0037098Y0030909D02*
X0037098Y0037091D01*
X0035620Y0035652D02*
X0035620Y0033050D01*
X0033885Y0033050D01*
X0032673Y0033050D02*
X0031372Y0033050D01*
X0030938Y0033484D01*
X0030938Y0035219D01*
X0031372Y0035652D01*
X0032673Y0035652D01*
X0032673Y0033050D01*
X0033185Y0030909D02*
X0033555Y0030909D01*
X0029815Y0030909D02*
X0029445Y0030909D01*
X0029293Y0033050D02*
X0028426Y0033050D01*
X0027992Y0033484D01*
X0027992Y0035219D01*
X0028426Y0035652D01*
X0029293Y0035652D01*
X0029727Y0035219D01*
X0029727Y0033484D01*
X0029293Y0033050D01*
X0024950Y0031469D02*
X0024950Y0029734D01*
X0024516Y0029300D01*
X0023649Y0029300D01*
X0023215Y0029734D01*
X0022003Y0029300D02*
X0020702Y0029300D01*
X0020269Y0029734D01*
X0020269Y0030167D01*
X0020702Y0030601D01*
X0022003Y0030601D01*
X0020702Y0030601D02*
X0020269Y0031035D01*
X0020269Y0031469D01*
X0020702Y0031902D01*
X0022003Y0031902D01*
X0022003Y0029300D01*
X0023215Y0031469D02*
X0023649Y0031902D01*
X0024516Y0031902D01*
X0024950Y0031469D01*
X0019057Y0031902D02*
X0019057Y0029300D01*
X0019057Y0030167D02*
X0017756Y0030167D01*
X0017322Y0030601D01*
X0017322Y0031469D01*
X0017756Y0031902D01*
X0019057Y0031902D01*
X0021868Y0036785D02*
X0021868Y0038715D01*
X0023632Y0038715D02*
X0023632Y0036785D01*
X0029445Y0037091D02*
X0033555Y0037091D01*
X0063572Y0050984D02*
X0064006Y0050550D01*
X0064873Y0050550D01*
X0065307Y0050984D01*
X0065307Y0051417D01*
X0064873Y0051851D01*
X0064006Y0051851D01*
X0063572Y0051417D01*
X0063572Y0050984D01*
X0064006Y0051851D02*
X0063572Y0052285D01*
X0063572Y0052719D01*
X0064006Y0053152D01*
X0064873Y0053152D01*
X0065307Y0052719D01*
X0065307Y0052285D01*
X0064873Y0051851D01*
X0066519Y0050984D02*
X0066952Y0050550D01*
X0067820Y0050550D01*
X0068253Y0050984D01*
X0066519Y0052719D01*
X0066519Y0050984D01*
X0068253Y0050984D02*
X0068253Y0052719D01*
X0067820Y0053152D01*
X0066952Y0053152D01*
X0066519Y0052719D01*
X0069465Y0052719D02*
X0069899Y0053152D01*
X0070766Y0053152D01*
X0071200Y0052719D01*
X0071200Y0050984D01*
X0070766Y0050550D01*
X0069899Y0050550D01*
X0069465Y0050984D01*
X0069500Y0049000D02*
X0073500Y0049000D01*
X0077700Y0049000D01*
X0077776Y0048998D01*
X0077852Y0048992D01*
X0077927Y0048983D01*
X0078002Y0048969D01*
X0078076Y0048952D01*
X0078149Y0048931D01*
X0078221Y0048907D01*
X0078292Y0048878D01*
X0078361Y0048847D01*
X0078428Y0048812D01*
X0078493Y0048773D01*
X0078557Y0048731D01*
X0078618Y0048686D01*
X0078677Y0048638D01*
X0078733Y0048587D01*
X0078787Y0048533D01*
X0078838Y0048477D01*
X0078886Y0048418D01*
X0078931Y0048357D01*
X0078973Y0048293D01*
X0079012Y0048228D01*
X0079047Y0048161D01*
X0079078Y0048092D01*
X0079107Y0048021D01*
X0079131Y0047949D01*
X0079152Y0047876D01*
X0079169Y0047802D01*
X0079183Y0047727D01*
X0079192Y0047652D01*
X0079198Y0047576D01*
X0079200Y0047500D01*
X0079200Y0015500D01*
X0079198Y0015424D01*
X0079192Y0015348D01*
X0079183Y0015273D01*
X0079169Y0015198D01*
X0079152Y0015124D01*
X0079131Y0015051D01*
X0079107Y0014979D01*
X0079078Y0014908D01*
X0079047Y0014839D01*
X0079012Y0014772D01*
X0078973Y0014707D01*
X0078931Y0014643D01*
X0078886Y0014582D01*
X0078838Y0014523D01*
X0078787Y0014467D01*
X0078733Y0014413D01*
X0078677Y0014362D01*
X0078618Y0014314D01*
X0078557Y0014269D01*
X0078493Y0014227D01*
X0078428Y0014188D01*
X0078361Y0014153D01*
X0078292Y0014122D01*
X0078221Y0014093D01*
X0078149Y0014069D01*
X0078076Y0014048D01*
X0078002Y0014031D01*
X0077927Y0014017D01*
X0077852Y0014008D01*
X0077776Y0014002D01*
X0077700Y0014000D01*
X0065300Y0014000D01*
X0065224Y0014002D01*
X0065148Y0014008D01*
X0065073Y0014017D01*
X0064998Y0014031D01*
X0064924Y0014048D01*
X0064851Y0014069D01*
X0064779Y0014093D01*
X0064708Y0014122D01*
X0064639Y0014153D01*
X0064572Y0014188D01*
X0064507Y0014227D01*
X0064443Y0014269D01*
X0064382Y0014314D01*
X0064323Y0014362D01*
X0064267Y0014413D01*
X0064213Y0014467D01*
X0064162Y0014523D01*
X0064114Y0014582D01*
X0064069Y0014643D01*
X0064027Y0014707D01*
X0063988Y0014772D01*
X0063953Y0014839D01*
X0063922Y0014908D01*
X0063893Y0014979D01*
X0063869Y0015051D01*
X0063848Y0015124D01*
X0063831Y0015198D01*
X0063817Y0015273D01*
X0063808Y0015348D01*
X0063802Y0015424D01*
X0063800Y0015500D01*
X0063800Y0047500D01*
X0063802Y0047576D01*
X0063808Y0047652D01*
X0063817Y0047727D01*
X0063831Y0047802D01*
X0063848Y0047876D01*
X0063869Y0047949D01*
X0063893Y0048021D01*
X0063922Y0048092D01*
X0063953Y0048161D01*
X0063988Y0048228D01*
X0064027Y0048293D01*
X0064069Y0048357D01*
X0064114Y0048418D01*
X0064162Y0048477D01*
X0064213Y0048533D01*
X0064267Y0048587D01*
X0064323Y0048638D01*
X0064382Y0048686D01*
X0064443Y0048731D01*
X0064507Y0048773D01*
X0064572Y0048812D01*
X0064639Y0048847D01*
X0064708Y0048878D01*
X0064779Y0048907D01*
X0064851Y0048931D01*
X0064924Y0048952D01*
X0064998Y0048969D01*
X0065073Y0048983D01*
X0065148Y0048992D01*
X0065224Y0048998D01*
X0065300Y0049000D01*
X0069500Y0049000D01*
X0069502Y0048912D01*
X0069508Y0048823D01*
X0069518Y0048735D01*
X0069531Y0048648D01*
X0069549Y0048561D01*
X0069570Y0048475D01*
X0069595Y0048390D01*
X0069624Y0048307D01*
X0069657Y0048224D01*
X0069693Y0048144D01*
X0069732Y0048065D01*
X0069775Y0047987D01*
X0069822Y0047912D01*
X0069872Y0047839D01*
X0069925Y0047768D01*
X0069981Y0047699D01*
X0070040Y0047633D01*
X0070102Y0047570D01*
X0070166Y0047510D01*
X0070233Y0047452D01*
X0070303Y0047398D01*
X0070375Y0047346D01*
X0070449Y0047298D01*
X0070526Y0047253D01*
X0070604Y0047212D01*
X0070684Y0047174D01*
X0070765Y0047140D01*
X0070848Y0047109D01*
X0070933Y0047082D01*
X0071018Y0047059D01*
X0071104Y0047040D01*
X0071192Y0047024D01*
X0071279Y0047012D01*
X0071367Y0047004D01*
X0071456Y0047000D01*
X0071544Y0047000D01*
X0071633Y0047004D01*
X0071721Y0047012D01*
X0071808Y0047024D01*
X0071896Y0047040D01*
X0071982Y0047059D01*
X0072067Y0047082D01*
X0072152Y0047109D01*
X0072235Y0047140D01*
X0072316Y0047174D01*
X0072396Y0047212D01*
X0072474Y0047253D01*
X0072551Y0047298D01*
X0072625Y0047346D01*
X0072697Y0047398D01*
X0072767Y0047452D01*
X0072834Y0047510D01*
X0072898Y0047570D01*
X0072960Y0047633D01*
X0073019Y0047699D01*
X0073075Y0047768D01*
X0073128Y0047839D01*
X0073178Y0047912D01*
X0073225Y0047987D01*
X0073268Y0048065D01*
X0073307Y0048144D01*
X0073343Y0048224D01*
X0073376Y0048307D01*
X0073405Y0048390D01*
X0073430Y0048475D01*
X0073451Y0048561D01*
X0073469Y0048648D01*
X0073482Y0048735D01*
X0073492Y0048823D01*
X0073498Y0048912D01*
X0073500Y0049000D01*
X0074147Y0050550D02*
X0074147Y0053152D01*
X0074147Y0051851D02*
X0072412Y0051851D01*
X0072412Y0053152D02*
X0072412Y0050550D01*
X0075358Y0051851D02*
X0077093Y0051851D01*
X0075792Y0053152D01*
X0075792Y0050550D01*
X0078305Y0052719D02*
X0080040Y0050984D01*
X0080040Y0050550D01*
X0078305Y0052719D02*
X0078305Y0053152D01*
X0080040Y0053152D01*
X0077016Y0040302D02*
X0076149Y0040302D01*
X0075715Y0039869D01*
X0074503Y0039869D02*
X0074503Y0039435D01*
X0074070Y0039001D01*
X0073202Y0039001D01*
X0072769Y0038567D01*
X0072769Y0038134D01*
X0073202Y0037700D01*
X0074070Y0037700D01*
X0074503Y0038134D01*
X0075715Y0038134D02*
X0076149Y0037700D01*
X0077016Y0037700D01*
X0077450Y0038134D01*
X0077450Y0039869D01*
X0077016Y0040302D01*
X0074503Y0039869D02*
X0074070Y0040302D01*
X0073202Y0040302D01*
X0072769Y0039869D01*
X0072106Y0035302D02*
X0071238Y0035302D01*
X0070805Y0034869D01*
X0071238Y0034001D02*
X0070805Y0033567D01*
X0070805Y0033134D01*
X0071238Y0032700D01*
X0072106Y0032700D01*
X0072540Y0033134D01*
X0072106Y0034001D02*
X0071238Y0034001D01*
X0072106Y0034001D02*
X0072540Y0034435D01*
X0072540Y0034869D01*
X0072106Y0035302D01*
X0069593Y0034869D02*
X0069593Y0033134D01*
X0069159Y0032700D01*
X0068292Y0032700D01*
X0067858Y0033134D01*
X0066647Y0033567D02*
X0064912Y0035302D01*
X0066647Y0035302D02*
X0066647Y0032700D01*
X0066213Y0034001D02*
X0064912Y0032700D01*
X0067858Y0034869D02*
X0068292Y0035302D01*
X0069159Y0035302D01*
X0069593Y0034869D01*
X0069159Y0025302D02*
X0068292Y0025302D01*
X0067858Y0024869D01*
X0067858Y0023134D01*
X0068292Y0022700D01*
X0069159Y0022700D01*
X0069593Y0023134D01*
X0069593Y0024869D01*
X0069159Y0025302D01*
X0070804Y0024869D02*
X0071238Y0025302D01*
X0072105Y0025302D01*
X0072539Y0024869D01*
X0072539Y0024435D01*
X0072105Y0024001D01*
X0071238Y0024001D01*
X0070804Y0023567D01*
X0070804Y0023134D01*
X0071238Y0022700D01*
X0072105Y0022700D01*
X0072539Y0023134D01*
X0073636Y0022700D02*
X0074503Y0022700D01*
X0074070Y0022700D02*
X0074070Y0025302D01*
X0074503Y0025302D02*
X0073636Y0025302D01*
X0075715Y0025302D02*
X0075715Y0022700D01*
X0077450Y0022700D02*
X0077450Y0025302D01*
X0076583Y0024435D01*
X0075715Y0025302D01*
X0074504Y0020302D02*
X0073637Y0019435D01*
X0072769Y0020302D01*
X0072769Y0017700D01*
X0071557Y0018134D02*
X0071124Y0017700D01*
X0070256Y0017700D01*
X0069823Y0018134D01*
X0069823Y0019869D01*
X0070256Y0020302D01*
X0071124Y0020302D01*
X0071557Y0019869D01*
X0071557Y0018134D01*
X0068611Y0018134D02*
X0068177Y0017700D01*
X0067310Y0017700D01*
X0066876Y0018134D01*
X0066876Y0018567D01*
X0067310Y0019001D01*
X0068177Y0019001D01*
X0068611Y0019435D01*
X0068611Y0019869D01*
X0068177Y0020302D01*
X0067310Y0020302D01*
X0066876Y0019869D01*
X0065664Y0020302D02*
X0064797Y0020302D01*
X0065231Y0020302D02*
X0065231Y0017700D01*
X0065664Y0017700D02*
X0064797Y0017700D01*
X0074504Y0017700D02*
X0074504Y0020302D01*
D13*
X0077800Y0014000D02*
X0077800Y0049000D01*
D14*
X0081450Y0046500D03*
X0081450Y0041500D03*
X0081350Y0036500D03*
X0081450Y0031500D03*
X0081450Y0026500D03*
X0081450Y0021500D03*
X0081450Y0016500D03*
X0061550Y0016500D03*
X0061550Y0021500D03*
X0061550Y0026500D03*
X0061550Y0031500D03*
X0061550Y0036500D03*
X0061550Y0041500D03*
X0061550Y0046500D03*
D15*
X0032902Y0046100D02*
X0030098Y0046100D01*
X0030098Y0049451D02*
X0032902Y0049451D01*
X0032902Y0021951D02*
X0030098Y0021951D01*
X0030098Y0018600D02*
X0032902Y0018600D01*
D16*
X0031500Y0020140D02*
X0031500Y0020360D01*
X0031500Y0047640D02*
X0031500Y0047860D01*
D17*
X0033816Y0047770D03*
X0029216Y0047770D03*
X0029216Y0020270D03*
X0033816Y0020270D03*
D18*
X0035240Y0029374D03*
X0031500Y0029374D03*
X0027760Y0029374D03*
X0027760Y0038626D03*
X0035240Y0038626D03*
D19*
X0022870Y0037750D02*
X0022630Y0037750D01*
D20*
X0022769Y0039341D03*
X0022769Y0036141D03*
M02*
