G75*
%MOIN*%
%OFA0B0*%
%FSLAX25Y25*%
%IPPOS*%
%LPD*%
%AMOC8*
5,1,8,0,0,1.08239X$1,22.5*
%
%ADD10R,0.08000X0.02600*%
%ADD11OC8,0.06300*%
%ADD12R,0.04331X0.03937*%
%ADD13R,0.02165X0.04724*%
%ADD14R,0.03543X0.03346*%
%ADD15C,0.01000*%
%ADD16C,0.02500*%
%ADD17C,0.01600*%
%ADD18C,0.02400*%
%ADD19C,0.03200*%
D10*
X0059400Y0016500D03*
X0059400Y0021500D03*
X0059400Y0026500D03*
X0059400Y0031500D03*
X0059400Y0036500D03*
X0059400Y0041500D03*
X0059400Y0046500D03*
X0083600Y0046500D03*
X0083600Y0041500D03*
X0083600Y0036500D03*
X0083600Y0031500D03*
X0083600Y0026500D03*
X0083600Y0021500D03*
X0083600Y0016500D03*
D11*
X0046500Y0016500D03*
X0046500Y0026500D03*
X0046500Y0036500D03*
X0046500Y0046500D03*
X0016500Y0046500D03*
X0016500Y0036500D03*
X0016500Y0026500D03*
X0016500Y0016500D03*
D12*
X0028154Y0020250D03*
X0034846Y0020250D03*
X0034846Y0047750D03*
X0028154Y0047750D03*
D13*
X0027760Y0039118D03*
X0035240Y0039118D03*
X0035240Y0028882D03*
X0031500Y0028882D03*
X0027760Y0028882D03*
D14*
X0022750Y0035467D03*
X0022750Y0040033D03*
D15*
X0003000Y0075000D02*
X0003000Y0003000D01*
X0095000Y0003000D01*
X0095000Y0075000D01*
X0003000Y0075000D01*
X0003000Y0074391D02*
X0095000Y0074391D01*
X0095000Y0073393D02*
X0062860Y0073393D01*
X0062453Y0073800D02*
X0026839Y0073800D01*
X0026808Y0073831D01*
X0025797Y0074250D01*
X0024703Y0074250D01*
X0023692Y0073831D01*
X0022919Y0073058D01*
X0022500Y0072047D01*
X0022500Y0070953D01*
X0022919Y0069942D01*
X0023692Y0069169D01*
X0024703Y0068750D01*
X0025797Y0068750D01*
X0026808Y0069169D01*
X0026839Y0069200D01*
X0060547Y0069200D01*
X0069200Y0060547D01*
X0069200Y0055803D01*
X0068703Y0056300D01*
X0063703Y0061300D01*
X0057453Y0061300D01*
X0056750Y0062003D01*
X0056750Y0062047D01*
X0056331Y0063058D01*
X0055558Y0063831D01*
X0054547Y0064250D01*
X0053453Y0064250D01*
X0052442Y0063831D01*
X0051669Y0063058D01*
X0051250Y0062047D01*
X0051250Y0060953D01*
X0051669Y0059942D01*
X0052411Y0059200D01*
X0038082Y0059200D01*
X0037117Y0059600D01*
X0035883Y0059600D01*
X0034744Y0059128D01*
X0032218Y0056602D01*
X0031746Y0055463D01*
X0031746Y0050905D01*
X0031500Y0050659D01*
X0031240Y0050919D01*
X0030898Y0051116D01*
X0030516Y0051218D01*
X0028638Y0051218D01*
X0028638Y0048234D01*
X0027669Y0048234D01*
X0027669Y0047266D01*
X0024488Y0047266D01*
X0024488Y0045584D01*
X0024590Y0045203D01*
X0024788Y0044860D01*
X0025067Y0044581D01*
X0025409Y0044384D01*
X0025791Y0044281D01*
X0027669Y0044281D01*
X0027669Y0047266D01*
X0028638Y0047266D01*
X0028638Y0044281D01*
X0030516Y0044281D01*
X0030898Y0044384D01*
X0031240Y0044581D01*
X0031500Y0044841D01*
X0031746Y0044595D01*
X0031746Y0038501D01*
X0032218Y0037362D01*
X0032657Y0036923D01*
X0032657Y0036135D01*
X0033536Y0035256D01*
X0036944Y0035256D01*
X0037150Y0035462D01*
X0037150Y0032750D01*
X0037138Y0032623D01*
X0037116Y0032572D01*
X0036944Y0032744D01*
X0033536Y0032744D01*
X0033334Y0032542D01*
X0033162Y0032642D01*
X0032780Y0032744D01*
X0031541Y0032744D01*
X0031541Y0028923D01*
X0031459Y0028923D01*
X0031459Y0032744D01*
X0030220Y0032744D01*
X0029838Y0032642D01*
X0029666Y0032542D01*
X0029464Y0032744D01*
X0026056Y0032744D01*
X0025177Y0031865D01*
X0025177Y0025898D01*
X0026056Y0025020D01*
X0029464Y0025020D01*
X0029666Y0025222D01*
X0029838Y0025122D01*
X0030220Y0025020D01*
X0031459Y0025020D01*
X0031459Y0028840D01*
X0031541Y0028840D01*
X0031541Y0025020D01*
X0032140Y0025020D01*
X0032140Y0023718D01*
X0032060Y0023718D01*
X0031500Y0023159D01*
X0031240Y0023419D01*
X0030898Y0023616D01*
X0030516Y0023718D01*
X0028638Y0023718D01*
X0028638Y0020734D01*
X0027669Y0020734D01*
X0027669Y0019766D01*
X0024488Y0019766D01*
X0024488Y0018084D01*
X0024590Y0017703D01*
X0024788Y0017360D01*
X0025067Y0017081D01*
X0025409Y0016884D01*
X0025791Y0016781D01*
X0027669Y0016781D01*
X0027669Y0019766D01*
X0028638Y0019766D01*
X0028638Y0016781D01*
X0030516Y0016781D01*
X0030898Y0016884D01*
X0031240Y0017081D01*
X0031500Y0017341D01*
X0032060Y0016781D01*
X0037633Y0016781D01*
X0038512Y0017660D01*
X0038512Y0022840D01*
X0038340Y0023011D01*
X0038340Y0026098D01*
X0040380Y0026943D01*
X0041850Y0028413D01*
X0041850Y0024574D01*
X0044574Y0021850D01*
X0048244Y0021850D01*
X0048244Y0021150D01*
X0044574Y0021150D01*
X0041850Y0018426D01*
X0041850Y0014574D01*
X0043874Y0012550D01*
X0028703Y0012550D01*
X0026750Y0014503D01*
X0026750Y0014547D01*
X0026331Y0015558D01*
X0025558Y0016331D01*
X0024547Y0016750D01*
X0023453Y0016750D01*
X0022442Y0016331D01*
X0021669Y0015558D01*
X0021250Y0014547D01*
X0021250Y0013453D01*
X0021669Y0012442D01*
X0022442Y0011669D01*
X0023453Y0011250D01*
X0023497Y0011250D01*
X0026797Y0007950D01*
X0066203Y0007950D01*
X0067550Y0009297D01*
X0067550Y0009297D01*
X0077453Y0019200D01*
X0078479Y0019200D01*
X0078679Y0019000D01*
X0078400Y0018721D01*
X0078202Y0018379D01*
X0078100Y0017997D01*
X0078100Y0016650D01*
X0083450Y0016650D01*
X0083450Y0016350D01*
X0083750Y0016350D01*
X0083750Y0016650D01*
X0089100Y0016650D01*
X0089100Y0017997D01*
X0088998Y0018379D01*
X0088800Y0018721D01*
X0088521Y0019000D01*
X0089100Y0019579D01*
X0089100Y0023421D01*
X0088521Y0024000D01*
X0089100Y0024579D01*
X0089100Y0028421D01*
X0088521Y0029000D01*
X0089100Y0029579D01*
X0089100Y0033421D01*
X0088521Y0034000D01*
X0089100Y0034579D01*
X0089100Y0038421D01*
X0088521Y0039000D01*
X0089100Y0039579D01*
X0089100Y0043421D01*
X0088521Y0044000D01*
X0089100Y0044579D01*
X0089100Y0048421D01*
X0088221Y0049300D01*
X0082841Y0049300D01*
X0082117Y0049600D01*
X0075883Y0049600D01*
X0074744Y0049128D01*
X0073872Y0048256D01*
X0073800Y0048082D01*
X0073800Y0062453D01*
X0063800Y0072453D01*
X0062453Y0073800D01*
X0063858Y0072394D02*
X0095000Y0072394D01*
X0095000Y0071396D02*
X0064857Y0071396D01*
X0065855Y0070397D02*
X0095000Y0070397D01*
X0095000Y0069399D02*
X0066854Y0069399D01*
X0067852Y0068400D02*
X0095000Y0068400D01*
X0095000Y0067402D02*
X0068851Y0067402D01*
X0069849Y0066403D02*
X0095000Y0066403D01*
X0095000Y0065405D02*
X0070848Y0065405D01*
X0071846Y0064406D02*
X0095000Y0064406D01*
X0095000Y0063408D02*
X0072845Y0063408D01*
X0073800Y0062409D02*
X0095000Y0062409D01*
X0095000Y0061411D02*
X0073800Y0061411D01*
X0073800Y0060412D02*
X0095000Y0060412D01*
X0095000Y0059414D02*
X0073800Y0059414D01*
X0073800Y0058415D02*
X0095000Y0058415D01*
X0095000Y0057417D02*
X0073800Y0057417D01*
X0073800Y0056418D02*
X0095000Y0056418D01*
X0095000Y0055420D02*
X0073800Y0055420D01*
X0073800Y0054421D02*
X0095000Y0054421D01*
X0095000Y0053423D02*
X0073800Y0053423D01*
X0073800Y0052424D02*
X0095000Y0052424D01*
X0095000Y0051426D02*
X0073800Y0051426D01*
X0073800Y0050427D02*
X0095000Y0050427D01*
X0095000Y0049429D02*
X0082531Y0049429D01*
X0089091Y0048430D02*
X0095000Y0048430D01*
X0095000Y0047432D02*
X0089100Y0047432D01*
X0089100Y0046433D02*
X0095000Y0046433D01*
X0095000Y0045434D02*
X0089100Y0045434D01*
X0088957Y0044436D02*
X0095000Y0044436D01*
X0095000Y0043437D02*
X0089084Y0043437D01*
X0089100Y0042439D02*
X0095000Y0042439D01*
X0095000Y0041440D02*
X0089100Y0041440D01*
X0089100Y0040442D02*
X0095000Y0040442D01*
X0095000Y0039443D02*
X0088965Y0039443D01*
X0089076Y0038445D02*
X0095000Y0038445D01*
X0095000Y0037446D02*
X0089100Y0037446D01*
X0089100Y0036448D02*
X0095000Y0036448D01*
X0095000Y0035449D02*
X0089100Y0035449D01*
X0088972Y0034451D02*
X0095000Y0034451D01*
X0095000Y0033452D02*
X0089069Y0033452D01*
X0089100Y0032454D02*
X0095000Y0032454D01*
X0095000Y0031455D02*
X0089100Y0031455D01*
X0089100Y0030457D02*
X0095000Y0030457D01*
X0095000Y0029458D02*
X0088980Y0029458D01*
X0089062Y0028460D02*
X0095000Y0028460D01*
X0095000Y0027461D02*
X0089100Y0027461D01*
X0089100Y0026463D02*
X0095000Y0026463D01*
X0095000Y0025464D02*
X0089100Y0025464D01*
X0088987Y0024466D02*
X0095000Y0024466D01*
X0095000Y0023467D02*
X0089054Y0023467D01*
X0089100Y0022469D02*
X0095000Y0022469D01*
X0095000Y0021470D02*
X0089100Y0021470D01*
X0089100Y0020472D02*
X0095000Y0020472D01*
X0095000Y0019473D02*
X0088995Y0019473D01*
X0088943Y0018475D02*
X0095000Y0018475D01*
X0095000Y0017476D02*
X0089100Y0017476D01*
X0089100Y0016350D02*
X0083750Y0016350D01*
X0083750Y0013700D01*
X0087797Y0013700D01*
X0088179Y0013802D01*
X0088521Y0014000D01*
X0088800Y0014279D01*
X0088998Y0014621D01*
X0089100Y0015003D01*
X0089100Y0016350D01*
X0089100Y0015479D02*
X0095000Y0015479D01*
X0095000Y0014481D02*
X0088917Y0014481D01*
X0083750Y0014481D02*
X0083450Y0014481D01*
X0083450Y0013700D02*
X0083450Y0016350D01*
X0078100Y0016350D01*
X0078100Y0015003D01*
X0078202Y0014621D01*
X0078400Y0014279D01*
X0078679Y0014000D01*
X0079021Y0013802D01*
X0079403Y0013700D01*
X0083450Y0013700D01*
X0083450Y0015479D02*
X0083750Y0015479D01*
X0083750Y0016478D02*
X0095000Y0016478D01*
X0095000Y0013482D02*
X0071735Y0013482D01*
X0072733Y0014481D02*
X0078283Y0014481D01*
X0078100Y0015479D02*
X0073732Y0015479D01*
X0074730Y0016478D02*
X0083450Y0016478D01*
X0078100Y0017476D02*
X0075729Y0017476D01*
X0076727Y0018475D02*
X0078257Y0018475D01*
X0070736Y0012484D02*
X0095000Y0012484D01*
X0095000Y0011485D02*
X0069738Y0011485D01*
X0068739Y0010487D02*
X0095000Y0010487D01*
X0095000Y0009488D02*
X0067741Y0009488D01*
X0066742Y0008490D02*
X0095000Y0008490D01*
X0095000Y0007491D02*
X0003000Y0007491D01*
X0003000Y0006493D02*
X0095000Y0006493D01*
X0095000Y0005494D02*
X0003000Y0005494D01*
X0003000Y0004496D02*
X0095000Y0004496D01*
X0095000Y0003497D02*
X0003000Y0003497D01*
X0003000Y0008490D02*
X0026258Y0008490D01*
X0025259Y0009488D02*
X0003000Y0009488D01*
X0003000Y0010487D02*
X0024261Y0010487D01*
X0022885Y0011485D02*
X0003000Y0011485D01*
X0003000Y0012484D02*
X0013940Y0012484D01*
X0014574Y0011850D02*
X0016200Y0011850D01*
X0016200Y0016200D01*
X0016800Y0016200D01*
X0016800Y0016800D01*
X0021150Y0016800D01*
X0021150Y0017244D01*
X0021496Y0017244D01*
X0022952Y0017847D01*
X0024066Y0018961D01*
X0024669Y0020417D01*
X0024669Y0020734D01*
X0027669Y0020734D01*
X0027669Y0023718D01*
X0025791Y0023718D01*
X0025409Y0023616D01*
X0025067Y0023419D01*
X0024788Y0023140D01*
X0024590Y0022797D01*
X0024490Y0022424D01*
X0024066Y0023448D01*
X0022952Y0024562D01*
X0021496Y0025165D01*
X0021150Y0025165D01*
X0021150Y0028426D01*
X0018426Y0031150D01*
X0014574Y0031150D01*
X0011850Y0028426D01*
X0011850Y0024574D01*
X0014574Y0021850D01*
X0016748Y0021850D01*
X0016748Y0020417D01*
X0016800Y0020291D01*
X0016800Y0016800D01*
X0016200Y0016800D01*
X0016200Y0021150D01*
X0014574Y0021150D01*
X0011850Y0018426D01*
X0011850Y0016800D01*
X0016200Y0016800D01*
X0016200Y0016200D01*
X0011850Y0016200D01*
X0011850Y0014574D01*
X0014574Y0011850D01*
X0016200Y0012484D02*
X0016800Y0012484D01*
X0016800Y0011850D02*
X0018426Y0011850D01*
X0021150Y0014574D01*
X0021150Y0016200D01*
X0016800Y0016200D01*
X0016800Y0011850D01*
X0016800Y0013482D02*
X0016200Y0013482D01*
X0016200Y0014481D02*
X0016800Y0014481D01*
X0016800Y0015479D02*
X0016200Y0015479D01*
X0016200Y0016478D02*
X0003000Y0016478D01*
X0003000Y0017476D02*
X0011850Y0017476D01*
X0011899Y0018475D02*
X0003000Y0018475D01*
X0003000Y0019473D02*
X0012897Y0019473D01*
X0013896Y0020472D02*
X0003000Y0020472D01*
X0003000Y0021470D02*
X0016748Y0021470D01*
X0016748Y0020472D02*
X0016200Y0020472D01*
X0016200Y0019473D02*
X0016800Y0019473D01*
X0016800Y0018475D02*
X0016200Y0018475D01*
X0016200Y0017476D02*
X0016800Y0017476D01*
X0016800Y0016478D02*
X0022796Y0016478D01*
X0022057Y0017476D02*
X0024721Y0017476D01*
X0024488Y0018475D02*
X0023580Y0018475D01*
X0024278Y0019473D02*
X0024488Y0019473D01*
X0024669Y0020472D02*
X0027669Y0020472D01*
X0027669Y0021470D02*
X0028638Y0021470D01*
X0028638Y0022469D02*
X0027669Y0022469D01*
X0027669Y0023467D02*
X0028638Y0023467D01*
X0031156Y0023467D02*
X0031809Y0023467D01*
X0032140Y0024466D02*
X0023049Y0024466D01*
X0024047Y0023467D02*
X0025151Y0023467D01*
X0024502Y0022469D02*
X0024472Y0022469D01*
X0025611Y0025464D02*
X0021150Y0025464D01*
X0021150Y0026463D02*
X0025177Y0026463D01*
X0025177Y0027461D02*
X0021150Y0027461D01*
X0021116Y0028460D02*
X0025177Y0028460D01*
X0025177Y0029458D02*
X0020118Y0029458D01*
X0019119Y0030457D02*
X0025177Y0030457D01*
X0025177Y0031455D02*
X0003000Y0031455D01*
X0003000Y0030457D02*
X0013881Y0030457D01*
X0014574Y0031850D02*
X0018426Y0031850D01*
X0019657Y0033081D01*
X0019778Y0032872D01*
X0020057Y0032593D01*
X0020399Y0032396D01*
X0020781Y0032293D01*
X0022413Y0032293D01*
X0022413Y0035130D01*
X0023087Y0035130D01*
X0023087Y0035803D01*
X0025509Y0035803D01*
X0026056Y0035256D01*
X0029464Y0035256D01*
X0030343Y0036135D01*
X0030343Y0038298D01*
X0030460Y0038581D01*
X0030460Y0040571D01*
X0030343Y0040854D01*
X0030343Y0042102D01*
X0029464Y0042980D01*
X0026056Y0042980D01*
X0025809Y0042733D01*
X0025616Y0042733D01*
X0025143Y0043207D01*
X0020357Y0043207D01*
X0019478Y0042328D01*
X0019478Y0040098D01*
X0018426Y0041150D01*
X0014574Y0041150D01*
X0011850Y0038426D01*
X0011850Y0034574D01*
X0014574Y0031850D01*
X0013970Y0032454D02*
X0003000Y0032454D01*
X0003000Y0033452D02*
X0012972Y0033452D01*
X0011973Y0034451D02*
X0003000Y0034451D01*
X0003000Y0035449D02*
X0011850Y0035449D01*
X0011850Y0036448D02*
X0003000Y0036448D01*
X0003000Y0037446D02*
X0011850Y0037446D01*
X0011869Y0038445D02*
X0003000Y0038445D01*
X0003000Y0039443D02*
X0012867Y0039443D01*
X0013866Y0040442D02*
X0003000Y0040442D01*
X0003000Y0041440D02*
X0019478Y0041440D01*
X0019589Y0042439D02*
X0019015Y0042439D01*
X0018426Y0041850D02*
X0021150Y0044574D01*
X0021150Y0048426D01*
X0018426Y0051150D01*
X0014574Y0051150D01*
X0011850Y0048426D01*
X0011850Y0044574D01*
X0014574Y0041850D01*
X0018426Y0041850D01*
X0019134Y0040442D02*
X0019478Y0040442D01*
X0020014Y0043437D02*
X0031746Y0043437D01*
X0031746Y0042439D02*
X0030005Y0042439D01*
X0030343Y0041440D02*
X0031746Y0041440D01*
X0031746Y0040442D02*
X0030460Y0040442D01*
X0030460Y0039443D02*
X0031746Y0039443D01*
X0031770Y0038445D02*
X0030403Y0038445D01*
X0030343Y0037446D02*
X0032183Y0037446D01*
X0032657Y0036448D02*
X0030343Y0036448D01*
X0029657Y0035449D02*
X0033343Y0035449D01*
X0037138Y0035449D02*
X0037150Y0035449D01*
X0037150Y0034451D02*
X0026022Y0034451D01*
X0026022Y0035130D02*
X0026022Y0033596D01*
X0025919Y0033214D01*
X0025722Y0032872D01*
X0025443Y0032593D01*
X0025101Y0032396D01*
X0024719Y0032293D01*
X0023087Y0032293D01*
X0023087Y0035130D01*
X0026022Y0035130D01*
X0025862Y0035449D02*
X0023087Y0035449D01*
X0023087Y0034451D02*
X0022413Y0034451D01*
X0022413Y0033452D02*
X0023087Y0033452D01*
X0023087Y0032454D02*
X0022413Y0032454D01*
X0020298Y0032454D02*
X0019030Y0032454D01*
X0025202Y0032454D02*
X0025766Y0032454D01*
X0025983Y0033452D02*
X0037150Y0033452D01*
X0031541Y0032454D02*
X0031459Y0032454D01*
X0031459Y0031455D02*
X0031541Y0031455D01*
X0031541Y0030457D02*
X0031459Y0030457D01*
X0031459Y0029458D02*
X0031541Y0029458D01*
X0031541Y0028460D02*
X0031459Y0028460D01*
X0031459Y0027461D02*
X0031541Y0027461D01*
X0031541Y0026463D02*
X0031459Y0026463D01*
X0031459Y0025464D02*
X0031541Y0025464D01*
X0038340Y0025464D02*
X0041850Y0025464D01*
X0041850Y0026463D02*
X0039221Y0026463D01*
X0040380Y0026943D02*
X0040380Y0026943D01*
X0040899Y0027461D02*
X0041850Y0027461D01*
X0041958Y0024466D02*
X0038340Y0024466D01*
X0038340Y0023467D02*
X0042957Y0023467D01*
X0043955Y0022469D02*
X0038512Y0022469D01*
X0038512Y0021470D02*
X0048244Y0021470D01*
X0043896Y0020472D02*
X0038512Y0020472D01*
X0038512Y0019473D02*
X0042897Y0019473D01*
X0041899Y0018475D02*
X0038512Y0018475D01*
X0038328Y0017476D02*
X0041850Y0017476D01*
X0041850Y0016478D02*
X0025204Y0016478D01*
X0026364Y0015479D02*
X0041850Y0015479D01*
X0041943Y0014481D02*
X0026772Y0014481D01*
X0027771Y0013482D02*
X0042942Y0013482D01*
X0028638Y0017476D02*
X0027669Y0017476D01*
X0027669Y0018475D02*
X0028638Y0018475D01*
X0028638Y0019473D02*
X0027669Y0019473D01*
X0021636Y0015479D02*
X0021150Y0015479D01*
X0021057Y0014481D02*
X0021250Y0014481D01*
X0021250Y0013482D02*
X0020058Y0013482D01*
X0019060Y0012484D02*
X0021652Y0012484D01*
X0012942Y0013482D02*
X0003000Y0013482D01*
X0003000Y0014481D02*
X0011943Y0014481D01*
X0011850Y0015479D02*
X0003000Y0015479D01*
X0003000Y0022469D02*
X0013955Y0022469D01*
X0012957Y0023467D02*
X0003000Y0023467D01*
X0003000Y0024466D02*
X0011958Y0024466D01*
X0011850Y0025464D02*
X0003000Y0025464D01*
X0003000Y0026463D02*
X0011850Y0026463D01*
X0011850Y0027461D02*
X0003000Y0027461D01*
X0003000Y0028460D02*
X0011884Y0028460D01*
X0012882Y0029458D02*
X0003000Y0029458D01*
X0003000Y0042439D02*
X0013985Y0042439D01*
X0012986Y0043437D02*
X0003000Y0043437D01*
X0003000Y0044436D02*
X0011988Y0044436D01*
X0011850Y0045434D02*
X0003000Y0045434D01*
X0003000Y0046433D02*
X0011850Y0046433D01*
X0011850Y0047432D02*
X0003000Y0047432D01*
X0003000Y0048430D02*
X0011854Y0048430D01*
X0012852Y0049429D02*
X0003000Y0049429D01*
X0003000Y0050427D02*
X0013851Y0050427D01*
X0019149Y0050427D02*
X0024665Y0050427D01*
X0024590Y0050297D02*
X0024488Y0049916D01*
X0024488Y0048234D01*
X0027669Y0048234D01*
X0027669Y0051218D01*
X0025791Y0051218D01*
X0025409Y0051116D01*
X0025067Y0050919D01*
X0024788Y0050640D01*
X0024590Y0050297D01*
X0024488Y0049429D02*
X0020148Y0049429D01*
X0021146Y0048430D02*
X0024488Y0048430D01*
X0024488Y0046433D02*
X0021150Y0046433D01*
X0021150Y0045434D02*
X0024528Y0045434D01*
X0025319Y0044436D02*
X0021012Y0044436D01*
X0021150Y0047432D02*
X0027669Y0047432D01*
X0027669Y0046433D02*
X0028638Y0046433D01*
X0028638Y0045434D02*
X0027669Y0045434D01*
X0027669Y0044436D02*
X0028638Y0044436D01*
X0030988Y0044436D02*
X0031746Y0044436D01*
X0028638Y0048430D02*
X0027669Y0048430D01*
X0027669Y0049429D02*
X0028638Y0049429D01*
X0028638Y0050427D02*
X0027669Y0050427D01*
X0031746Y0051426D02*
X0003000Y0051426D01*
X0003000Y0052424D02*
X0031746Y0052424D01*
X0031746Y0053423D02*
X0003000Y0053423D01*
X0003000Y0054421D02*
X0031746Y0054421D01*
X0031746Y0055420D02*
X0003000Y0055420D01*
X0003000Y0056418D02*
X0032142Y0056418D01*
X0033033Y0057417D02*
X0003000Y0057417D01*
X0003000Y0058415D02*
X0034031Y0058415D01*
X0035434Y0059414D02*
X0003000Y0059414D01*
X0003000Y0060412D02*
X0051474Y0060412D01*
X0051250Y0061411D02*
X0003000Y0061411D01*
X0003000Y0062409D02*
X0051400Y0062409D01*
X0052019Y0063408D02*
X0003000Y0063408D01*
X0003000Y0064406D02*
X0065341Y0064406D01*
X0066340Y0063408D02*
X0055981Y0063408D01*
X0056600Y0062409D02*
X0067338Y0062409D01*
X0068337Y0061411D02*
X0057342Y0061411D01*
X0052197Y0059414D02*
X0037566Y0059414D01*
X0023462Y0069399D02*
X0003000Y0069399D01*
X0003000Y0068400D02*
X0061347Y0068400D01*
X0062346Y0067402D02*
X0003000Y0067402D01*
X0003000Y0066403D02*
X0063344Y0066403D01*
X0064343Y0065405D02*
X0003000Y0065405D01*
X0003000Y0070397D02*
X0022730Y0070397D01*
X0022500Y0071396D02*
X0003000Y0071396D01*
X0003000Y0072394D02*
X0022644Y0072394D01*
X0023254Y0073393D02*
X0003000Y0073393D01*
X0064591Y0060412D02*
X0069200Y0060412D01*
X0069200Y0059414D02*
X0065589Y0059414D01*
X0066588Y0058415D02*
X0069200Y0058415D01*
X0069200Y0057417D02*
X0067586Y0057417D01*
X0068585Y0056418D02*
X0069200Y0056418D01*
X0073800Y0049429D02*
X0075469Y0049429D01*
X0074046Y0048430D02*
X0073800Y0048430D01*
D16*
X0076500Y0044000D03*
X0076500Y0036500D03*
X0056500Y0024000D03*
X0054000Y0031500D03*
X0039000Y0014000D03*
X0034000Y0014000D03*
X0029000Y0014000D03*
X0024000Y0014000D03*
X0066500Y0007750D03*
X0071500Y0007750D03*
X0076500Y0007750D03*
X0036500Y0056500D03*
X0024000Y0057750D03*
X0019000Y0057750D03*
X0025250Y0071500D03*
X0054000Y0061500D03*
X0059000Y0066500D03*
X0071500Y0066500D03*
X0076500Y0066500D03*
D17*
X0071500Y0061500D02*
X0061500Y0071500D01*
X0025250Y0071500D01*
X0054000Y0061500D02*
X0056500Y0059000D01*
X0062750Y0059000D01*
X0067750Y0054000D01*
X0067750Y0019000D01*
X0065250Y0016500D01*
X0059400Y0016500D01*
X0065250Y0010250D02*
X0027750Y0010250D01*
X0024000Y0014000D01*
X0028154Y0016500D02*
X0028154Y0020250D01*
X0026500Y0021500D02*
X0024500Y0021500D01*
X0024000Y0019000D01*
X0024500Y0021500D02*
X0024000Y0024000D01*
X0046500Y0026500D02*
X0049000Y0029000D01*
X0049000Y0031500D01*
X0051500Y0034000D01*
X0051500Y0036500D01*
X0054000Y0039000D01*
X0059400Y0039000D01*
X0059400Y0036500D01*
X0059400Y0031500D02*
X0054000Y0031500D01*
X0059400Y0026500D02*
X0059400Y0024000D01*
X0071500Y0031500D02*
X0071500Y0061500D01*
X0059000Y0046900D02*
X0059400Y0046500D01*
X0076500Y0036500D02*
X0083600Y0036500D01*
X0083600Y0029000D02*
X0074000Y0029000D01*
X0071500Y0031500D01*
X0076500Y0021500D02*
X0065250Y0010250D01*
X0076500Y0021500D02*
X0083600Y0021500D01*
D18*
X0083600Y0026500D02*
X0083600Y0029000D01*
X0083600Y0031500D01*
X0083600Y0041500D02*
X0083600Y0046500D01*
X0059000Y0046900D02*
X0059000Y0054000D01*
X0056500Y0056500D01*
X0036500Y0056500D01*
X0027760Y0040033D02*
X0022750Y0040033D01*
X0027760Y0040033D02*
X0027760Y0039118D01*
X0059400Y0041500D02*
X0059400Y0036500D01*
X0059400Y0026500D02*
X0059400Y0021500D01*
D19*
X0061500Y0021500D02*
X0057265Y0021500D01*
X0057265Y0022211D01*
X0056500Y0024059D01*
X0056500Y0026500D01*
X0061500Y0026500D01*
X0061500Y0021500D01*
X0061500Y0023890D02*
X0056570Y0023890D01*
X0056500Y0036500D02*
X0056500Y0041500D01*
X0061500Y0041500D01*
X0061500Y0036500D01*
X0056500Y0036500D01*
X0056500Y0036684D02*
X0061500Y0036684D01*
X0061500Y0039882D02*
X0056500Y0039882D01*
X0046500Y0046500D02*
X0046344Y0046498D01*
X0046188Y0046492D01*
X0046033Y0046483D01*
X0045878Y0046469D01*
X0045723Y0046451D01*
X0045568Y0046430D01*
X0045415Y0046405D01*
X0045262Y0046376D01*
X0045109Y0046343D01*
X0044958Y0046307D01*
X0044807Y0046266D01*
X0044658Y0046222D01*
X0044509Y0046175D01*
X0044362Y0046123D01*
X0044217Y0046068D01*
X0044072Y0046009D01*
X0043929Y0045947D01*
X0043788Y0045881D01*
X0043649Y0045812D01*
X0043511Y0045739D01*
X0043375Y0045663D01*
X0043241Y0045583D01*
X0043109Y0045500D01*
X0042979Y0045414D01*
X0042852Y0045325D01*
X0042726Y0045232D01*
X0042603Y0045136D01*
X0042483Y0045038D01*
X0042364Y0044936D01*
X0042249Y0044832D01*
X0042136Y0044724D01*
X0042026Y0044614D01*
X0041918Y0044501D01*
X0041814Y0044386D01*
X0041712Y0044267D01*
X0041614Y0044147D01*
X0041518Y0044024D01*
X0041425Y0043898D01*
X0041336Y0043771D01*
X0041250Y0043641D01*
X0041167Y0043509D01*
X0041087Y0043375D01*
X0041011Y0043239D01*
X0040938Y0043101D01*
X0040869Y0042962D01*
X0040803Y0042821D01*
X0040741Y0042678D01*
X0040682Y0042533D01*
X0040627Y0042388D01*
X0040575Y0042241D01*
X0040528Y0042092D01*
X0040484Y0041943D01*
X0040443Y0041792D01*
X0040407Y0041641D01*
X0040374Y0041488D01*
X0040345Y0041335D01*
X0040320Y0041182D01*
X0040299Y0041027D01*
X0040281Y0040872D01*
X0040267Y0040717D01*
X0040258Y0040562D01*
X0040252Y0040406D01*
X0040250Y0040250D01*
X0040250Y0032750D01*
X0040248Y0032630D01*
X0040242Y0032510D01*
X0040233Y0032390D01*
X0040219Y0032270D01*
X0040202Y0032152D01*
X0040181Y0032033D01*
X0040156Y0031916D01*
X0040127Y0031799D01*
X0040095Y0031683D01*
X0040059Y0031568D01*
X0040019Y0031455D01*
X0039976Y0031343D01*
X0039929Y0031232D01*
X0039879Y0031123D01*
X0039825Y0031015D01*
X0039767Y0030910D01*
X0039707Y0030806D01*
X0039643Y0030704D01*
X0039576Y0030605D01*
X0039505Y0030507D01*
X0039432Y0030412D01*
X0039355Y0030319D01*
X0039276Y0030229D01*
X0039194Y0030141D01*
X0039109Y0030056D01*
X0039021Y0029974D01*
X0038931Y0029895D01*
X0038838Y0029818D01*
X0038743Y0029745D01*
X0038645Y0029674D01*
X0038546Y0029607D01*
X0038444Y0029543D01*
X0038340Y0029483D01*
X0038235Y0029425D01*
X0038127Y0029371D01*
X0038018Y0029321D01*
X0037907Y0029274D01*
X0037795Y0029231D01*
X0037682Y0029191D01*
X0037567Y0029155D01*
X0037451Y0029123D01*
X0037334Y0029094D01*
X0037217Y0029069D01*
X0037098Y0029048D01*
X0036980Y0029031D01*
X0036860Y0029017D01*
X0036740Y0029008D01*
X0036620Y0029002D01*
X0036500Y0029000D01*
X0035358Y0029000D01*
X0035240Y0028882D01*
X0035240Y0021894D01*
X0034846Y0020250D01*
X0034846Y0039118D02*
X0035240Y0039118D01*
X0034846Y0039118D02*
X0034846Y0047750D01*
X0034846Y0054846D01*
X0036500Y0056500D01*
X0076500Y0046500D02*
X0076500Y0041500D01*
X0081500Y0041500D01*
X0081500Y0046500D01*
X0076500Y0046500D01*
X0076500Y0046279D02*
X0081500Y0046279D01*
X0081500Y0043081D02*
X0076500Y0043081D01*
X0076500Y0031500D02*
X0081500Y0031500D01*
X0081500Y0026500D01*
X0076500Y0026500D01*
X0076500Y0031500D01*
X0076500Y0030287D02*
X0081500Y0030287D01*
X0081500Y0027088D02*
X0076500Y0027088D01*
M02*
