%
M48
M72
T01C0.01300
T02C0.03200
T03C0.04921
%
T01
X24000Y14000
X29000Y14000
X34000Y14000
X39000Y14000
X56500Y24000
X54000Y31500
X76500Y36500
X76500Y44000
X54000Y61500
X59000Y66500
X71500Y66500
X76500Y66500
X36500Y56500
X24000Y57750
X19000Y57750
X25250Y71500
X66500Y7750
X71500Y7750
X76500Y7750
T02
X16500Y16500
X16500Y26500
X16500Y36500
X16500Y46500
X46500Y46500
X46500Y36500
X46500Y26500
X46500Y16500
T03
X52205Y21205
X20709Y21205
M30
